/* XPM */
static char *result[] = {
/* columns rows colors chars-per-pixel */
"64 64 89 1 ",
"  c #06071B",
". c #070A1C",
"X c #080C1F",
"o c #070A23",
"O c #0A0D24",
"+ c #070A29",
"@ c #090C2C",
"# c #0B1026",
"$ c #0C122C",
"% c #070B30",
"& c #0A0D34",
"* c #0B0D3B",
"= c #0E1433",
"- c #0F1837",
"; c #0E143A",
": c #0F1839",
"> c #101635",
", c #111836",
"< c #10163A",
"1 c #11193C",
"2 c #0C0E43",
"3 c #0E0F49",
"4 c #0E1143",
"5 c #0E114B",
"6 c #101542",
"7 c #131D43",
"8 c #181E47",
"9 c #11144B",
"0 c #141E49",
"q c #0F1352",
"w c #111453",
"e c #151B53",
"r c #191D56",
"t c #12155A",
"y c #16195A",
"u c #181D5E",
"i c #162045",
"p c #192145",
"a c #16214B",
"s c #19244D",
"d c #162352",
"f c #192554",
"g c #1C2955",
"h c #172759",
"j c #1A265A",
"k c #1B295C",
"l c #202A54",
"z c #22265C",
"x c #222E5C",
"c c #121763",
"v c #191C65",
"b c #161968",
"n c #1D2165",
"m c #1D2C63",
"M c #1D2069",
"N c #1E2E6B",
"B c #1F306D",
"V c #1F3172",
"C c #232E62",
"Z c #263364",
"A c #2D3963",
"S c #21316B",
"D c #28376C",
"F c #2F3968",
"G c #212474",
"H c #262C79",
"J c #223472",
"K c #273874",
"L c #2D3A73",
"P c #23367B",
"I c #26397D",
"U c #2D3D7B",
"Y c #2E407B",
"T c #253982",
"R c #2B3D82",
"E c #293F8B",
"W c #273F91",
"Q c #2F4285",
"! c #3A4A81",
"~ c #294193",
"^ c #2F469C",
"/ c #344890",
"( c #374C99",
") c #3B509C",
"_ c #384FA6",
"` c #3C52A0",
"' c #425497",
"] c #4B62B3",
"[ c #4D66C0",
/* pixels */
"OX#XXXXX$#$=$$=,=,>>>=$=$#$$#$$$$$$>1>11:::=$$OOOOOOOXXX#...X.  ",
"OOXXXXOX@O$,$$=$==$$==>>>$#>>>$$$$><111177a-$$$O$$O#OO$#XX......",
"X###XX####$====,=>=$$11$$>>=,1=$$$,11771a77-:,====$##$$###XX....",
"##$$##$,>111770i====>=1>>,1>>,==,11ssi7i7;::::<:=<>$#####XX.X..X",
"#$####1p:17ajjk7:<=====11011,>::117Zgi77i::-::ag77,=$######X#X##",
"$,$,=$111:=7ia0::<=>=:==7707711:777siii1ia:-17:777-kx$#O#XXX##,#",
"$>>81=,,===::7:::<::::1>170aaa77aa7117117fi=-17:01=ss@##XXX.X##X",
",$$$=$$$====71::70111:177pdgkNja7071111:::==:17ag7==$$$$#X..#XXX",
"=====$$$$$$$pp=-i:i7:117iagBBQkp1118111111=-::::1:--$=$$#XXO#OOX",
"$$$=====,-11=--:::i:::170sdhkxfgs1p111101=::::7::71:==$O##X#$#OO",
">1===:=:1111:::ii:71=110iiissdpsslx1170ai--1:i::771:,==$#X#$>##O",
"==<=::-17117aa07sk:,:77177ipsAp1ppp1:ZUmf==1::7771111,=$###$=##X",
"#=-:,1,1111ama7adk1as0i:1isgpppp111p1ZYQQ777;77:17ia::=$$$#$>$#O",
"#=-==,=>-::7gai:i:1pi7--iisxsspp,pl111aKRNdfa777iadfa:==$$$=$=>#",
"$==:==$>=-::7i7i--::isigdigmSkspppgppssjkNhf07700dddka:7=$$#$=$$",
"$$-====$=,==::7a1i-idkBBhkVY(Ufspplsdkjffa0a07amdddadi::$$$$#$$$",
"O$$=:$=$$>>>111dff17fmJNkkP^[)jsp1isggddd000dhdaaa0ai:::--$$$$-$",
"O$$-1===1p>==:7aJYs00R`mffP~_/mfs7idgkgdd777addaa077777:-$$$$-$$",
"OO====$$gs>>-:sSNkaadkKjfhPW]]VfgiakmBmgdda000a77700i7i1-$$$$$##",
"$$$=$$$$$$,11pdKNaagxZsfhkIETWJNmhghmmNkhmha07a7a17dda71--$$-$$$",
"#$$$$$==>,,psiamIhdhsdadS/RRVVVmmmmkmBBkmhhd01s7770007::i,$$$$$$",
"O$$$===$$,,smaskJhiddddjVPBNBBkjhBmhNVImddha777777770:77,,,,$,$$",
"OO$#$1$=,1,iffjkfs70ssfjBTVBBmfjgkfdkVTmfdga711177707:::,#,#$$,,",
"#O$$$=$$,=,1jkagaa0aaadfmmkjjfsfdaassBVfsaai11-177777::-,#$$#,$$",
"OO$$==#$$$>1papp71ii7sdfdsd0ii7iia1p1aaaad071:1171Zg11>>,#$$#$$-",
"OO$O#=$$$=,1p,===:17iadd70xk087iiip1p17pfJf11711<101>$>>$#$$$$-$",
"OOOOO#@$#>1>=$$>=,:7aa0daadjdddaai1700iaf'L117==11==>=>$$#$#####",
"OOOO#>=$$>>#$#$,,==ia700aadmmkjgfa7717077d71=$=->>>$>$$######X##",
"XO$O$=##$>#$#$$,=1i77000aaajSBNmjgi100171:==>>11g11$$$$OOOOOXoOX",
"OOOXOOOO####$=$,=7a70afdfxdZmV~Nda07p111:1:==1>>1##$###OOOOOO##O",
"XOOX$O#O@##$,$,,:170dhJhaaf!DhPmaaa77>===-<=>=>>####O#OOOOOO##Oo",
"XXXXOO>,#O#=$$>==177dhhkdidkfdhdiagjC=====>>#$$>$O##O##X.OOOOO#O",
" XXXO$$$##$$=<1==11dBNdjja000000a:;00>==>><<$$#$$######XXO#$$@@O",
"X XOOOOOO##$$=>>>:70mSafj077717807<>>>==>$$$O$=O$$#$=$##OO#$$$#O",
"O  OOOOO#OO#$$=><<=11780ass00771:777<>==>&$$$>1O$$$$=,#OXO##@$#O",
" OOOOOOO###=$$<>==$$$=18ld07770<::;0<=>@$=>$$$$$$=,$$$#O##O@$$$O",
"XXOO@#OO#@$=$=>$$=$$$@$,711777fd811<><=$==<>@>$$=1=$$$$O$$$$$$@O",
"XOO1<###OO$$@$$$=$#@$O$$>7s0:70jr1<<1111<=$$#$$@,=$==$$O$$$$$$O$",
" OO@@O###@$$@@$&7==$&@>@$181;07:77<<>>11<1>=$$@$==>==$$$$$$$=>@O",
"   OOOO@#@$=>@$><>==<>>>>&>>7f7;7x8<>><6<<>>>$=>===>>>=#=8@$@$&O",
"   +OooO&$@@>>$>==$=:7;==&=&6877607<&<><>><<$$&=<;=><<7;$>>&$$&O",
"OX O@+O$$=$O$<6<=O$=@==<<=>>7047786<;<6<&>0<$$>><<>=7707=<;<&$@O",
"X OooOOO@=$@$$<>&&@@===;>&&<<<<00jj0<<1>$>8>@$>66<<>6<77><<&$8=O",
"OoO o@ OO@O@>&@&==$=&=@@=$$>&<6rfrUL1<&&&@$&@&>80:<><<;7<<;<&*@o",
"&@o@@+XoO@@6;>>$&<&>:>@&=@>&;66876d0;==&>&=@=@>6;;6<<;<<6686&@@O",
"ooo@@oO+@@@&&=&=&<0&@@@>6&;;;<&66;4;=&>7$@@@<<$=;;&=<<4;0rF8=@@o",
"o  OO+@@@@$$@$@@@<<@@@@@&&<&&<&66;;=@=<d@@>@;=@@@@O=<6*<68z8*@oo",
"&%+o@@&+O@&&@@@@=&@@@@@@@@@@<9>==@&@@@&@@@OO+@&@@+@+&&><>&&&<@+o",
"o++@&@++@@=@@>6@<C*&@@@@@@@@<*=6e$@$@@@@@@++O+&@O@@+@@@@@=&@@+oo",
"o++*+++69*@@@&6@&e*@+O@@@@@&&&&6r&@@@@@@@&@@++@@&@++@&=@@zr*@@+o",
"+o+++@+692**@&@*&@@@;;*@@@@@@>&<&$$@@@++O@@@+++@@@O@@+*@@6*@@*@+",
"+++++++@@69*@@@@@@@@ny9@@@&&$=&&&@@&9&@@@@O@&&@@+@@@@@@&@@@++@@@",
"++@+&&@++@92@+@@$@@@&9y&@&&&>&&&=&6wy*&&&*@@@&&@@%&%+@++@+++o++%",
"@@@@*2&*&&*&@@++@&@&&@&&@&*&&&<2&yu9v6@&&&&&9&@**&+2*+@@&%+%o+%*",
"@@@@&9**&@@*6+@+@3*&&=&@@;M6&&4r;*;rw&@&&23*M*2q***6@@@@+&*+&+%3",
"@@@@&3&@&@@9M&&@&*9*4&=&&&9*&>&**&&HG&@@&*&@&*wq2w5*+*6%+%%%&+++",
"%%%***&%&&&&*&&&&*9*&&&&&&&&&*&&&&*2*&&&33%&&*&%&q*%%2t%@%%*%%%+",
"%*%*q*&*&**3**&**&&&&&&*92&&&&&***&&&&**2&23&&&%&*&*ww&%&&%%%%%%",
"&32&***2&***&*****&*&*2*34*2*&&3***&*&&*&*33&&*&*&&*q3&22%&&&&&&",
"***&*2***&*&**&&*32&&23*&422&****&*93**&***2*&&*&*&***&*22*&*2*&",
"**&**************2q2******2******22222**2*2b33***222****22***q3*",
"****2******222**22t3**2**22**2**2tq22*33**23222**3t2*22**2****23",
"*2*22*2*2222tt23b2222222222222*2222222vn*22*222t3223322222322233",
"222222232222qq333222323222222222222222wt2222222t222ct3b323tt2tbq"
};
