/* XPM */
static char *result[] = {
/* columns rows colors chars-per-pixel */
"64 64 129 2 ",
"   c #01071B",
".  c #01091D",
"X  c #010D23",
"o  c #010E2A",
"O  c #041026",
"+  c #02112C",
"@  c #09152D",
"#  c #010F31",
"$  c #021434",
"%  c #091731",
"&  c #041836",
"*  c #0A1933",
"=  c #021539",
"-  c #081639",
";  c #031A3C",
":  c #091C3B",
">  c #021D43",
",  c #081F41",
"<  c #021E49",
"1  c #021F51",
"2  c #042145",
"3  c #0A2243",
"4  c #03234C",
"5  c #09254A",
"6  c #07294E",
"7  c #0C294D",
"8  c #10284A",
"9  c #032553",
"0  c #092751",
"q  c #032954",
"w  c #0A2B54",
"e  c #032759",
"r  c #032B5B",
"t  c #092D5C",
"y  c #102F56",
"u  c #05315E",
"i  c #09315C",
"p  c #042763",
"a  c #032E62",
"s  c #082F60",
"d  c #032F69",
"f  c #082A6A",
"g  c #043364",
"h  c #0A3564",
"j  c #0D3867",
"k  c #04346B",
"l  c #093668",
"z  c #04396D",
"x  c #0A3A6B",
"c  c #113766",
"v  c #123B68",
"b  c #032F71",
"n  c #033672",
"m  c #0B3670",
"M  c #043B74",
"N  c #0A3C73",
"B  c #05337B",
"V  c #0B377E",
"C  c #043D7A",
"Z  c #093E7A",
"A  c #064075",
"S  c #04437C",
"D  c #0A437D",
"F  c #114272",
"G  c #11417A",
"H  c #0F3785",
"J  c #043E80",
"K  c #093F97",
"L  c #044483",
"P  c #094584",
"I  c #044985",
"U  c #094B85",
"Y  c #04468A",
"T  c #044B8C",
"R  c #084C8B",
"E  c #174682",
"W  c #07508F",
"Q  c #0E528C",
"!  c #0B4292",
"~  c #034E92",
"^  c #094D93",
"/  c #034C9A",
"(  c #104499",
")  c #045294",
"_  c #095294",
"`  c #04549B",
"'  c #08539A",
"]  c #04589D",
"[  c #09599E",
"{  c #245C95",
"}  c #0456A1",
"|  c #0952A1",
" . c #055BA4",
".. c #0A5CA4",
"X. c #0054A9",
"o. c #035DAA",
"O. c #085EAA",
"+. c #025DB5",
"@. c #055EBD",
"#. c #0960A4",
"$. c #0561AC",
"%. c #0B64AD",
"&. c #1660A4",
"*. c #0362B3",
"=. c #0468B5",
"-. c #0566B9",
";. c #046BBB",
":. c #0A6CBE",
">. c #1175BF",
",. c #066BC3",
"<. c #056FC8",
"1. c #0472C3",
"2. c #0B71C1",
"3. c #0475CC",
"4. c #0B76C8",
"5. c #047BCD",
"6. c #0B7BCE",
"7. c #047BD3",
"8. c #057BD9",
"9. c #197DDC",
"0. c #0C7AE3",
"q. c #0681D4",
"w. c #0984D6",
"e. c #0684D8",
"r. c #0883DF",
"t. c #0588DA",
"y. c #0E8EDA",
"u. c #058AE4",
"i. c #0A97E8",
/* pixels */
"X o X X X X X     X X X       X .           . X X X X X . O X . X O O X O X X X X X X . . . .   . . . . . . X . . . . . . . . . ",
"o X o o o o X X X X X   X X X   X .       . . . X X X X O X X . . X X X X X X O X X . . . . .   . . X . X . X O X . . . . . . . ",
"o o o o o o X X X X X X X X X X . .     . . . X X X . O O O X X X X X O X O O O O X . . . . . . . X X . . O X X X . O . . . . O ",
"o o o o o o o o X X X X X X X X X       . X X X X X O . . X . X . O O X O X X O X X . . . . . X X . X X X X X X X O . O X O X X ",
"o # $ o $ o o o o o # X X X X X X X X X X X X + O O X . O X X . O . . X X X X X . O . . . X . O X X X X O + = X X X X O X O X X ",
"# o o # $ @ o o o # X X o o X o X X X X X X o + O O X X X . X X . X O X X X O X X . X X X . X O X X X X + X $ + + O X X X X X . ",
"$ $ % $ $ $ o @ # O o o # o o o o o o o X + O + O X X X X X X X O . O X O X O X . X . X . X X X X X + O O + X X X O X + X O X X ",
"o # # $ # # $ $ # @ # # # # o o o o o o + + + O O + + X . X . X . O . X . . X . X . X X X X X + X + X + + X + + o + X X + X O O ",
"@ o # $ + $ : $ $ $ $ @ $ $ + $ & O + $ + = + & @ + + O O . X X O . . . . . O O . . . . X X X X + X o X O O + + $ O o O X X + X ",
"o o $ o $ $ + $ $ $ $ $ + $ & $ $ & ; & : + + & $ $ & O + O X O O . . . . X . . O O X O $ X + X + + + + + + + + + + + X + + + + ",
"o o + $ + $ & + - - % $ $ = ; = & & ; $ : $ $ $ & & ; & $ & O O O . O . . . . O X O O O + O + O + + + + X + + O + + O + + + + + ",
"o o # + + $ @ & @ $ - : = : : ; ; ; $ & = ; ; ; ; = : & + @ O O O O . O . X . . X O O O O O O + % + X + + $ + + + + + + + O + + ",
"o o $ o + $ $ $ $ $ $ : : ; ; ; 2 & & ; ; & ; & ; ; ; & & & O + O O O X . O X X O O O O O O O O O O o + + @ $ + + + + + + + + + ",
"# $ $ # $ $ & & & & & ; : = ; ; & : 2 ; 2 2 & 2 > > & ; + + + & O O O O X O O O O O O O O + + O X + + + % X $ $ & + + + + + + + ",
"$ # $ $ $ $ $ : = = = : : = : ; & ; 2 2 2 3 2 & 2 7 2 ; & & + O O O O @ O O O O O O O O O + O O o X X X : h = O + + + O + & + + ",
"$ $ $ % = = & & = ; = & 2 ; 3 7 2 ; 2 2 2 2 2 & 2 2 2 ; > ; $ & @ O @ @ O O O O O O O O O O O O X X @ X = w = + O O O + + + + + ",
"; ; = = 2 ; ; ; > = ; ; > 2 > 2 2 2 2 4 2 2 2 > > 2 ; : 4 ; & ; $ + + + + O + O + @ + + O O O O O O O O X X X @ X O o o @ + + $ ",
"> > > ; 2 ; 2 > : > 2 ; ; 2 4 4 4 2 2 4 2 ; 2 2 4 5 2 3 > 2 & & $ + + O + & & + & + + + + O O O X X X X . @ O O O X o o $ $ + $ ",
", < < > < < 2 4 4 < 2 2 ; 4 4 4 4 4 4 2 ; ; & 2 4 4 2 & & 2 2 & $ & $ & & & & & + & & + + + @ O X O O X X . O + O X o @ & + + & ",
"4 4 4 2 < < < V q > 2 ; ; 2 4 6 4 6 6 2 ; & ; ; & ; ; : ; ; & ; & + @ & & + & & $ $ $ & + + + O X O O X X . X X O X @ o & $ + & ",
"q q q 4 2 4 i r 4 4 2 2 < ; 4 4 4 6 4 2 ; & ; $ $ $ & & & & + $ $ & $ ; & & ; & ; ; ; & & + O O X O O X X X X X + : + & + $ $ ; ",
"j r 4 4 4 q i 4 4 4 2 2 > 2 2 2 6 u q 6 : ; ; & $ = & = ; & $ $ + ; : 4 2 2 ; 2 2 ; ; & & + + + O O X X X X @ @ & 2 & * & + ; ; ",
"A u q q 4 4 4 4 4 4 4 2 2 4 6 6 q u 6 4 2 2 2 & = ; & & = & $ & ; ; > 6 2 2 2 2 4 4 4 2 2 & & O @ o X X o $ o * & & ; : & * & ; ",
"A z g u q q 4 q 6 4 4 4 4 u u u u u 6 6 2 2 > ; > H 9 ; ; = : ; 2 > 4 6 i q 4 2 4 4 6 2 2 2 ; & # @ @ o @ o $ $ & 2 q 2 ; 2 ; 2 ",
") ) S g q u 4 4 q q 4 q u u g u u q 6 4 2 3 ; ; > d 4 & = ; ; 2 2 4 6 u g i q 6 6 q 6 2 4 2 ; & & & + + & & ; > ; 2 2 2 2 2 2 4 ",
";.) S u 2 2 2 2 q q q g z z g u q 6 6 4 ; 2 2 ; ; & ; : > 2 6 4 q q u A g A u 6 4 4 4 4 6 6 2 2 6 > 3 3 $ : 2 4 2 4 6 2 > 4 4 6 ",
"1.T A 4 ; $ & > q q u g z g u 6 4 4 4 2 > 2 > & & ; > 2 2 4 q i l A A A A u q 6 2 > 2 4 6 6 q i q 4 6 6 > 2 6 q 6 y 7 2 4 q q u ",
"#.M g q 2 ; ; 4 u q r u g g q 4 4 4 2 2 2 2 ; 2 : : > > 5 q h z D U S D S A u 6 6 2 2 4 6 q i i i q 6 4 6 i q u u y 2 2 q q g A ",
"$.W M u u 4 2 q q q u q g u q 4 4 4 2 > > 2 2 2 2 ; > 2 4 q v z M I ) I A A g q 6 ; : 2 6 q u u i u i u u u u u r u q 4 q g A U ",
"$.$.` M q q > 2 4 4 q 6 q q 6 4 4 4 > 2 > 2 ; ; ; 2 2 2 4 4 u k A W ) S A z i 6 4 : ; > 6 6 u u u u u i u u l u q q u q h S ] ` ",
"` ) T T z q 4 ; ; > 4 6 2 q 4 6 6 4 4 ; ; & & ; > ; 2 4 4 q g g z S U z z g q 2 2 ; > 4 6 q u A g g u z x g z z l g z z g I ..$.",
" .` ) T T A q 2 4 2 ; 2 2 q q i 4 4 4 > 2 2 ; 2 ; 2 2 4 q r x h g g l r q r 9 2 2 4 w q u z u g g u x z z z S D S S S M A W $.$.",
"*.o.) ) ) S g g z q 4 4 4 4 q 4 4 2 2 2 ; 4 = = ; > , 6 u g l l g g r q q q 4 4 4 q w r h l g g g z F z A M S I ] ] W T I ) ;.;.",
"-.*.` I L I I S Q A z I S q q 4 4 > 2 2 ; : > ; ; ; > q q g C S C M h j i 9 6 4 4 5 4 q r u u x z z z A U ` ;.5.5.%. .` T ] =.;.",
"+.0.+.I W ) ) ) ` ) ] ] $.U i u q 4 > ; ; ; 2 2 > ; < e g z L U S z A j q q 0 4 4 w 0 4 q w r j F M S I ..1.4.y.t.5.=.] L T #. .",
"~ X.&._ ) ) W T ` ] ] ' ] $.] S g 4 4 2 4 q 9 4 4 4 g M Y ~  .O.R M z h e 4 q 4 4 4 4 2 7 w r u k A S T >.6.3.w.q.t.5.) ) ` ' ) ",
"L S _ ) W I T I _ #.]  .T )  .W z u r q r z g e e h S ` %.6.u.8./ M g h i 6 6 4 4 , < > < 2 0 t z M L  .2.3.3.3.2.q.q. .%.[ T L ",
"I ) ) W T S I I W ] #.] I S C z g u i u g k e q 9 M ^ / -.u.i.8.` M j c t 4 4 , 3 4 > > ; 5 < 4 i M T ' o.-.:.-.+.3.2.o.o.' T L ",
"I T I W I S S I I ] ] S L I C z g z g g g h e < < 9 R ^ } 8.u.0.,.L x a e 0 0 < < 3 > ; > > 2 6 q l A M C )  . .` } } } ` ) ^ L ",
"W T S S S S S S S W W T S S T ) `  .] S g r 9 0 9 h ^ } | +.,.<.,.P n z d r 0 4 , > > : , ; : > 4 q r i g C ~ / ` ' ` } ' / Y I ",
"T S S M M C z M A S L ] ) z L T ` @.} C C M k J J C / / Y ! ^ O.+.C C M a h e 0 0 4 , , ; ; : ; > 4 4 9 e n Y / ' ~ / ' .._ Y R ",
"S M z k g g g z M A S T T S L ' @.9./ ~ T J J Y Y C Y R C C d { ..P D P k k d h r 0 > > ; ; < > 2 < < < q M P ~ ~ ~ Y / ~ / Y | ",
"A z a r r u r z z M M z k g M L ` / Y T B n M J P L J C n d d Z P Z n C N z z s r 4 > > > = ; > > 4 4 4 w D ~ Y R ~ Y ~ Y Y P Y ",
"z g 9 9 q r e z k k n z g g g n M C T Y z g k n B J J n d d e d k p n m M k r e 9 , > > : = ; = 1 ( p 9 r C L L J J U R Y L C n ",
"e 9 < < 4 4 9 e r g z x a r d a x J C C C a d g n n n k f p p e e d n g n l c 9 0 < > ; ; ; ; > e B m g g d B C D P P P I L M M ",
"9 4 < > 4 4 4 q q r a r e q e e a k r a g a t k d g p p r e t e d N d a a g h 9 4 4 2 > ; = > 0 z g r d g z M C D C J J C B n n ",
"< > > > ; < 4 q e 9 e e q 9 0 < < 1 9 9 9 r r r p e p e r e 9 e s k a r e g r 9 4 e e t 9 < 4 g M C z N n m N N C B n n Z E n g ",
"; = = ; ; > 4 4 4 4 9 4 4 4 < < > < < 1 < 1 0 e 9 9 e e e e e t r s r e r a r r e r r e q < 9 n M C M Z M C C n C z n d N Z n d ",
"= = = = = ; ; < > 2 > < < > > > > > > > 1 > 1 1 > > 1 1 1 0 e e e e a e e s d s a e r r 9 4 r z n M n m m C M k l z g d g n n d ",
"; = $ = = = ; ; > > > > > = > = > > # > > > > > > 1 > 1 w 1 1 e e 9 e e r r e r e 9 e 9 e e e d k m z n n k l d s g a p d g g r ",
"> = + $ $ = = ; ; > > > < > # = > # > # # # > > > > > 1 y 1 1 1 9 e 1 e r r e a s e a r r r e g k d k k g d a a e p r r a d a r ",
"o o o $ = = = = = ; > ; = = # = # # # > > > # > > > > > , < 1 1 0 1 e 9 9 e e r r e e e r r e a h g k k g r a r r e e e e e e t ",
"o o # # # $ $ = > # > # = # - = # # > # # > > # > > > 1 > 1 1 1 1 9 9 1 9 9 e e e 9 9 e r l r r a a g d r l h e e t 9 9 9 e 1 e ",
"o o o # o # # - # > # > = # = # # > # > > # # > > 1 > > > 1 0 1 1 9 9 9 9 9 9 e 9 9 9 9 9 p a e r s a r g r 9 q e e 1 9 9 9 1 9 ",
"o # o o # $ # - # > > # > # # = # # # # # # # > > 1 > > > 1 1 y 1 9 9 9 9 9 9 9 9 9 9 9 9 9 9 e e e r a e r q 9 0 0 1 0 9 4 9 9 ",
"o o o # # - , # > # # > # # - # > # # > > > > > > # > < > > 1 1 < 9 < < 9 9 9 < < < 9 4 9 9 e e e e r r e r e 9 1 1 1 < < < < < ",
"o o o o - # # > # # > # # # > # # # > # > # > # # > > > < < > < < < < < 0 < 0 9 9 < 9 1 9 e e 9 e 9 e b b e 9 r 9 1 < < < > > < ",
"X o o o # # # # # > # # # , > # > # # > > > > # > > > > > < < < < < < < < < < 0 < 9 9 e 9 e 9 9 9 e 9 ! K 9 e a 9 < 1 < < > > > ",
"X X o o # # # - # # > > # # # > # > > # # > > > > > > > > > > < < > > < < < < < 4 9 r r e e e 9 9 9 9 e a 9 9 9 1 < 1 < < > > > ",
"X X o o o # # - > # # # > > # # > # # > > # # > > # > > > > > > > > > > > > > < < 1 e e e e 9 e 9 9 9 9 9 9 9 9 1 9 9 < e < ; > ",
"X X X o # # # # # # # > # # > # # > # > > = = = # > > # > > > > > > > > > > > < < < < 9 9 9 q 9 0 9 < 4 9 9 9 < 1 9 < 9 < > > > ",
"X X o o # # - # > - , # # > > # # > > # # = = > > # # > > > # < > > > > = > = > > < < < 4 0 9 4 4 9 4 < 4 9 9 9 9 4 9 4 < > ; ; ",
"X X o # # # # # # , > # # > # # > # # > = = # # # > > # > # # > > > > > > = > = > < < < 0 4 < 4 4 4 < > < < < 4 4 < < 0 < > > = ",
"X o o o # # > # > # # # > # # , # # > # > # > # > # # > # > > > > > = > = > = = ; > , < 4 4 4 < 4 4 < < < 1 < 4 < < > < > > > = "
};
