/* XPM */
static char *istockphoto_1061591684_170667a_1_1639756486[] = {
/* columns rows colors chars-per-pixel */
"64 64 180 2 ",
"   c #010204",
".  c #02040C",
"X  c #03080E",
"o  c #020613",
"O  c #030915",
"+  c #02071A",
"@  c #030A1C",
"#  c #090C1F",
"$  c #0C1013",
"%  c #0F131C",
"&  c #12161F",
"*  c #040D23",
"=  c #0A0D24",
"-  c #030E2B",
";  c #090F29",
":  c #051125",
">  c #091225",
",  c #0E1A26",
"<  c #04112C",
"1  c #09132E",
"2  c #0B192B",
"3  c #131722",
"4  c #1B1E25",
"5  c #010E31",
"6  c #041434",
"7  c #091533",
"8  c #051937",
"9  c #0A1A35",
"0  c #04163A",
"q  c #09173A",
"w  c #04193D",
"e  c #091A3C",
"r  c #0B233D",
"t  c #172031",
"y  c #14243D",
"u  c #192A3E",
"i  c #242834",
"p  c #282D31",
"a  c #232C3D",
"s  c #031741",
"d  c #0A1741",
"f  c #041B44",
"g  c #091C44",
"h  c #051D4A",
"j  c #091E4A",
"k  c #031E51",
"l  c #0A1E51",
"z  c #0B2242",
"x  c #0E2946",
"c  c #05214D",
"v  c #09214C",
"b  c #06284E",
"n  c #152643",
"m  c #172945",
"M  c #1F2A40",
"N  c #15274B",
"B  c #142B4E",
"V  c #16304B",
"C  c #1B304D",
"Z  c #052354",
"A  c #092453",
"S  c #062953",
"D  c #0C2955",
"F  c #05265A",
"G  c #0A265B",
"H  c #05295D",
"J  c #092A5C",
"K  c #142551",
"L  c #132D55",
"P  c #122F5D",
"I  c #0E3055",
"U  c #173152",
"Y  c #1B3355",
"T  c #12335D",
"R  c #1A3059",
"E  c #313944",
"W  c #223F5F",
"Q  c #042661",
"!  c #052C63",
"~  c #092C63",
"^  c #052E6A",
"/  c #092E69",
"(  c #053166",
")  c #0A3165",
"_  c #05316C",
"`  c #09326C",
"'  c #0E386A",
"]  c #133362",
"[  c #1D3E63",
"{  c #10356A",
"}  c #153A6D",
"|  c #193A6F",
" . c #053473",
".. c #093572",
"X. c #063876",
"o. c #0A3975",
"O. c #063679",
"+. c #0B3778",
"@. c #053A7B",
"#. c #093B7B",
"$. c #153E76",
"%. c #113D7E",
"&. c #0F4277",
"*. c #194175",
"=. c #15487D",
"-. c #1C4879",
";. c #234062",
":. c #2A4065",
">. c #244568",
",. c #2C4F6D",
"<. c #224473",
"1. c #294C75",
"2. c #26477D",
"3. c #304F7E",
"4. c #375877",
"5. c #043D82",
"6. c #083D82",
"7. c #053F88",
"8. c #044284",
"9. c #094286",
"0. c #04448C",
"q. c #09448A",
"w. c #05498F",
"e. c #094A8E",
"r. c #134684",
"t. c #1C4680",
"y. c #044692",
"u. c #044B94",
"i. c #0A4B94",
"p. c #034D9A",
"a. c #084D9A",
"s. c #04529D",
"d. c #0A559F",
"f. c #195794",
"g. c #255585",
"h. c #23548C",
"j. c #29568F",
"k. c #2F5D8F",
"l. c #385984",
"z. c #295A92",
"x. c #225D99",
"c. c #30619B",
"v. c #0455A4",
"b. c #0855A1",
"n. c #0559A4",
"m. c #095AA5",
"M. c #0256A8",
"N. c #035BAC",
"B. c #095BAD",
"V. c #035DB2",
"C. c #0A5FB1",
"Z. c #0560AF",
"A. c #0461B6",
"S. c #0966B6",
"D. c #0364BA",
"F. c #0569BE",
"G. c #0868BC",
"H. c #1164B4",
"J. c #156CBC",
"K. c #3078B2",
"L. c #486988",
"P. c #56789E",
"I. c #4E78A2",
"U. c #4176A8",
"Y. c #417FBA",
"T. c #0266C2",
"R. c #046AC3",
"E. c #096AC0",
"W. c #006ECA",
"Q. c #0770C1",
"!. c #0C71C3",
"~. c #0572CA",
"^. c #0A71CD",
"/. c #1070C6",
"(. c #1C71C1",
"). c #0678D0",
"_. c #247CCA",
"`. c #4C81B3",
"'. c #5A8DC2",
"]. c #47ADFF",
/* pixels */
"w < 8 0 f j j k H ! J F Z c Z Z f h k F ) F h f - 6 0 6 0 8 - 7 w w 0 8 8 q d f ! ! ^ ` ^ H F D !  .8.8.5.@.q.u.i.p.M.v.u.0.X.! ",
"1.v 0 f f f A J _  ./ ~ A v f v Z h G ~ ^ _ J 0 6 6 6 6 6 6 - < < < 6 8 6 0 f h ~ ~ ~ _  .) ! F ~  .5.i.i.u.s.n.n.N.V.n.s.0.X.G ",
"} c f c A F H ` X.^ ^ F A h h c S Z ~ _ ^ _ F Z f d 0 6 6 - < < - 6 0 g f s k F H ! ! ^ _  .` ! ! Q _ @.0.p.M.N.A.V.A.N.M.p.X.J ",
"H Z c c H ! _  ./ ! F F A A F H F ! (  .X. .^ ! S Z v g 6 < 6 6 6 w g j j h S ! ^ _ ! _ _ ../ ! ! Z Z S / 5.s.N.D.D.D.V.N.M.8.! ",
"X.^ H H H _ .. .H H F F A A H F F ) ^ _  . ...` ! ! J A f s f w s f Z S Z S F ~ _ ^ ! ~ ^ .._ H H c f g A  .y.b.S.F.G.D.A.V.p.@.",
"u.0.@._ _ X.o.~ ( ( ~ Z c j h Z F ( ^ X.r. . . ._ ^ ~ ! Z k c h h Z H ! J F F ! ! F F H ^  ._ H Z f f j Z _ w.b.D.T.E.D.V.V.V.p.",
"V.C.p.8.0.0.@._ X.o.( Z j f f v ~ H _ o.c.o. ._ ^ ! ! ~ F S A f h A ! ! ~ H ! ! ` ! G ~ ^ _ _ Z j j f f k _ u.B.V.T.R.F.D.V.D.V.",
"D.N.p.p.b.v.a.5.X.X.Q Z j f f j Z H ! _ _ _ _  .H ! ! ! F Z h f f Z F H H F ! /  .Q D G ! ! J c f f j f f ! w.V.D.W.W.R.A.S.F.T.",
"A.M.s.b.M.N.M.u.@. .! c g 0 0 8 ] >.F F F ~ _ _ ^ F Z Z Z f w 0 d f j F F _ ^  ._ J h g j c Z Z c h f f f ! 7.B.Q.~.).V.N.C.D.T.",
"R.A.v.M.J.N.Z.d.9.O.^ f 0 w 0 w c D h Z Z H ! _ ! H Z c h h f 0 w f 0 d A H ~ ! ~ Z f 0 s f S k f f f f f J 0.S.].).T.S.M.M.D.R.",
"F.F.A.Z._.N.M.M.u.5._ j 7 0 g L f v f f j Z !  .F F S A j h f d 0 0 q 6 0 f h S v f 0 w 0 f f f v f j f f Z @.n.Q.R.^./.B.M.S.D.",
"V.D.F.M.n.m.M.N.v.w.O.h q 5 0 ;.v 0 w d 0 j Z H H Z c j f f f f f w w 6 5 0 0 f 0 8 0 w e 0 0 0 f f j 0 d h  .u.V.~.R.F.V.V.M.N.",
"V.A.V.M.v.s.p.(.(.u.@.A q 6 6 8 0 0 6 7 7 6 0 A G h h 0 6 6 0 w 0 e 6 0 0 w 6 7 6 6 0 8 0 0 6 6 f j j f 0 d _ w.V.T.D.S.V.M.M.Z.",
"v.M.V.B.p.p.u.d.Z.u.8.H d q 5 8 8 6 6 < 6 6 0 0 h j s 6 < < < 6 6 5 R D f w w 6 e w f f w 6 - 6 f l h f 8 d ^ 0.N.T.D.V.N.V.N.b.",
"b.s.v.M.s.0.0.8.8.0.q.( f 0 q w 6 6 6 < m r 8 0 0 0 6 7 < * - 6 q 6 [ T f f f w d f f j d 0 6 6 f k h f 0 d ^ w.n.G.T.A.A.V.N.b.",
"v.v.b.b.b.u.@.X._ O.5._ h s q f 9 < 6 6 V m 0 g 0 - - ; @ * * 6 6 w f s h h v h v f Z h f N n 8 f Z h h w g ^ 0.v.A.S.A.V.V.M.s.",
"u.i.a.p.v.7.O./ ) Q _ ! Z h f 0 8 6 6 6 6 0 f 0 6 - - # @ * 5 0 f w e 0 f h c c k G j w f f r f A S Z k j A ! 5.y.p.b.s.y.e.i.u.",
"u.i.e.u.p.5.^ F ! ! _ ! F l d 6 6 6 0 0 f f g 0 6 < * + + < 8 f c B 0 f s f h Z F F f f f 0 f f G J F S c S ! X.9.q.0.7.9.5.y.u.",
"p.0.5.w.8.o.H ~ ! Q ^ ! F Z g e 0 q 6 6 0 w w 0 6 < * + + < e j h h f s j f h Z D Z f w z c c F ! ! Q F Z ~ ~ _ o.o.X.#.6.X.0.p.",
"y.6.O.7.8.( F ! ~ ! ~ ! F Z j f 6 0 q 8 0 w 0 0 6 < * * * < f A Z h f h Z l S Z F k s f g A H ! ! F F F ! ~ / _ ^ _ _  ..._ 8.u.",
"X.`  .@.5.` } -.~ F J ~ H F c h 0 q e 0 g z e q 6 < * ; * 6 h F F S Z Z Z H H ! S h j j f h F ! Z Z J ~ ( Q ^ ! ^ ^ _ _ ` _ @.8.",
"^ ! ` O.O. .`  .F S Z S F Z F D w w e 6 e r 6 6 - < < * - w A Q F S Z -.k.! H H Z c c j g Z ! ! c k ! ! _ _ ^ _ ^ Q ^ ` ` ....^ ",
"/ _ _ ^ ^ o.@.X.! F c v Z k S J w 0 q 6 w 6 * - < < < * < g S ^ H H F '.z.F J G Z h c f f A Q F f F ` ^ _ ` _ ^ / ^ ^ ^ _ / ..^ ",
"^  ._ / !  .X.5. .F h j v c h h f 0 7 6 < - < y 8 < * * 1 f H _ ! ! _ _ _ ! G k Z f h h f A G Z f ` r.O.^ _ ` _ ( ^ ` ^ ..^ _ _ ",
" ._ ` ^ ^ ^ X.O...F Z h l j f f 8 w 5 5 6 * < C r - ; @ w ~ _ ! _ _ ^ ^ ! F F H J h f f g l Z S f *.h. .@. ...~ ! ! ` ( ! _ ^  .",
"_ ` ` ` ^ ^ ^  .^ J A j 0 f 0 6 6 - ;.4.6 7 * - < 6 1 < w H ! ( ^ _  .^ ! ! F J Z f f f h h Z c c Z !  .X. ._ ^ ^ ^ _  . . ._ ! ",
"^ ^ .._ ^ ^ ! ! / F f 6 8 5 6 - 5 6 [ ,.6 8 6 5 8 6 1 < f ~ ) ! _  .X. .^ ! ~ G c g g f c h h A c Z F _ _  . ._  . . .@.X. .` ! ",
"^ ^ / _ / ^ ! H F v 0 6 < 1 1 < - w 0 0 w f 0 5 >.L.5 w Z H Q ( _  .X. .^ ! F F j f f w f h h Z F F ! ` _ _ _ _ ^ X. .@.O.#.` ~ ",
"! ^ ! ^ ~ ~ H F A d 6 - < 6 - - < g c g v L f w b I f f H H ~ _ ` ..#.O.` ! F Z f h ] S k h A Z ! ! Q ^ _ ^ ^ _ _ _ X.X.@...^ Q ",
"! ~ ! Q H H Z Z h f e < 6 6 6 0 6 g c h g K f f f f v F ! H ! ) ( _ X.X. .~ S Z c J I.J j f c Z ! ` _ _ ! / ! ) ! $.z._  . .` ! ",
"F ! G Z Z Z Z k Z D f 0 f :.z - 6 g c k l 0 0 f f z f Z H F H ) H _ O.@. ./ H S Z c S c w w s c J ( ! ! ! _ ! / _ ! ` H ` ! ! J ",
"Q J S Z h Z Z S ! J c f f R 0 6 w 0 c D Z f d f f 0 f k G F H H ~ _ #.O. .^ F Z Z j f 0 6 6 0 d S F ! Q ! _ _ ! Q ! H H ~ H Z Z ",
"A Z Z k A G ! ! ! H F S j 0 6 6 0 f f h h f f 0 e 0 f h S Z Z F  .X.O. .^ F c j d g 0 0 < - 6 0 0 k G F H H ( ^ _ H F S F F j f ",
"0 j h h Z A S F j c c c j f 0 6 6 0 j Z S Z h h j j Z S F H ! ^ .. ._ ! G c f 0 w 6 6 * @ : < - - 0 j k c Z F ! H ! H Z S j 0 0 ",
"; 6 0 f h f f s 0 f f f f f f 0 0 0 f A F k k Z h h h Z Z F ! ! ) ! F c g 0 6 6 < < @ + . O ; * < < 0 0 f j h F H H ! ) f 6 6 - ",
"* : 8 0 f s e g f g f h h h Z h A Z F F Z h f j h h s d f A c c S h 0 6 < * * * @ + O . O O @ * * - - < w g f h c f l.P.- 1 * ; ",
"@ : < 6 6 0 f j c c Z Z Z A A A F ! ~ ~ S k f g f f 0 q 6 w 0 f f 6 = O o . o o O . . . . + + * * 1 < 8 w 0 f f g - e g 6 6 < = ",
"- 7 9 7 7 0 g h F F F F Z F Z Z Z F ~ H J F A Z Z c g 0 6 6 8 0 6 : o       .   X       . o + @ * < - 6 8 0 U U * 1 < - 6 0 * * ",
"- 6 7 6 6 f h S H ! H J J F F S Z S G H H H F Z Z Z v 0 8 5 6 6 ; O           .   .   o , 2 * * * < < 6 6 6 e 9 * * 7 7 w 6 e 6 ",
"w 8 0 f f f Z J F H J J H F Z F F F F F ! J F F c h j w q < < * * o             3 4 . o u y * ; : * < 6 - - * + * < q 6 0 e w 0 ",
"f f h Z k h ) 1.H H ! F S G F Z H Z G Q F ! H H H Z f s d 0 - * O .             $ 3 . . o + * 6 - - < < * * * - < 6 < 8 0 f 6 < ",
"f v h S 3.D Z I ! ! ! F F Z Z Z D ~ k H ! ! ! ~ Q S v f g 0 * @ + .       .   . X . . O + @ * - - - - < * * - < 6 6 0 g g 0 6 0 ",
"f f f A ] Z F F ! ! Q H F F Z F ~ ! `.=.^ ~ ~ Q ~ k h v 0 < < O O .           .   X . o . + > * < < < < n 6 < < < 6 0 e z 0 s f ",
"j c h h h F ~ ! ! _ ! H F Z F F F ( U.&.! ~ Q ^ H Z S k D B * : O .       .           . % . o # : : 6 - m 6 < < 6 e e 0 0 f h h ",
"j v j c S Q ! ~ ! ~ ! F F A G F G J k F Q ! ~ g.G Z J S P R 6 < + o .                 $ p . . o @ * < 6 - - - 7 < 9 1 < 6 0 j h ",
"c h c Z Z F Q ~ H ~ H F Z A S J F $.2.! Q ! H H S Z F A h 0 q - ; + O .                   . . O @ * - < * < < * * * * * 6 f f v ",
"h c h c A G F H F ! ~ F Z Z F H H ' *.! ! J S k A A Z j d e - - - * * + . .       .   X   . X # @ * < * - * * * @ * * < 8 w f h ",
"c f k j Z Z Z Z H ! ! F F F F ! H F ! o.~ H G A A h f 0 6 < @ * * * ; * + o o o .           O # * * * > @ : * @ + * < < 6 0 f h ",
"j f f h Z Z Z F G ! ! ! H S F ! ! ! H ~ ~ H F Z A f 8 6 < * ; * * * * : * : @ @ X   .   . . . = * @ @ O @ : * + : * 5 q 0 0 w j ",
"f f f h j A Z Z F ! _ ~ F F ~ ! ! ! ~ ! ! ! S Z j s 6 - - * * * * * * * @ @ @ @ .           o * * + + o @ > @ # * < 0 0 0 0 f f ",
"f f f f j k Z Z F ~ ` ~ F G F ! ~ F ~ ! ! ! F Z g w 6 < : * @ # @ # * : * @ O O     .       o + * O O o + + * * < 6 8 0 f j h f ",
"h j f f f f h h F ' { F F J F ! ! ! ~ / ! ! G Z f w 6 6 < : @ @ + # : : * # O o o     o .   O * ; + . O + @ * * 6 6 8 0 j Z j j ",
"h f j v f f h Z Z H ) ~ F F ! Q ! ~ ! ( ! F F c 0 6 < < < > : @ O + @ * * + + o o . i O o . + - + O o o # * * * - 1 6 0 j f f f ",
"f f f v f f h Z Z S ~ ~ ! ! F ! ! ! ! ! ! F A f e 6 6 - - ; # + + o @ * * * # @ + O E + @ @ # * # + o # * * @ + + * 1 0 0 0 6 0 ",
"8 0 f j j h f c c S H ^ .._ Q J ! ~ ! H ~ ] c f e q 6 < - * * + o + @ * * : * : : O . + @ * # @ o o O o * M a o X + - 7 6 6 6 0 ",
"6 6 0 f f j f f v Z ! ^ _ ` ! H Q ~ F ~ ~ <.v f 0 6 < < - - = @ + O # * : * < 1 - o o o @ * O o X o o # + * > . . O - 6 < 7 7 6 ",
"8 6 6 6 0 g h Z c A Q f.K.X.~ S H H ~ ~ Z Z Z Z 0 6 9 < 6 < - 1 # @ @ + * 7 6 0 8 - @ O + + + o $ o o + O o . . X + * 5 < 6 6 6 ",
"6 6 < 6 w f k Z A ~ ^ x.K.^ ! ^ _ ^ ! ! F Z c h v 0 6 < < < 1 * @ @ O + * < 8 g w 6 - # + O o + o o o o O o o o o @ 1 6 0 6 6 6 ",
"6 6 6 6 q f h Z F ~ ^ O.X.O.O.#.X.O._ ! F Z j f j s w w w < < * @ @ O O @ < 0 f A f 8 : + O o . O . . . O + + @ @ - < 6 6 0 6 0 ",
"6 0 0 6 q 0 g g k ! ..X.O.@.O.@.#. .^ F Z h j f j f 0 8 6 - * @ @ O O O @ * 8 f P Z 0 < # . . . o o > t @ - 8 8 6 6 6 w 8 0 f s ",
"0 w 0 6 6 6 6 w f Z _ O.O.5.O.@._ ! H F Z h f f f d w 6 - - * O + + + O @ * 6 g Z Z c g : o o O + @ 2 n 8 f Z Z 0 g v A j f f w ",
"f 0 0 7 6 6 6 6 g c ~ ^  . .@._ F k h c c h f 0 6 6 < < - - * ; + @ * ; * < 6 w h Z F f < # + @ < 7 0 0 h ~ / Q F S F F G F j f ",
"w w 0 0 7 w w w c <.~ ) / _ ` ^ S h f j c h w 8 8 6 e 8 0 6 6 r 2 < 8 6 < - 6 w c F ! Z 6 < < 6 f c D Q _  .....O.^ ^ _ ^ ~ F h ",
"w 0 0 0 0 w f f h ( ( F Q F ~ ! c f f Z Z f 0 1 6 < B Y w 0 8 r e 8 0 d 6 < 8 f v F ! F f 7 w f H !  .@.@.O.@.#.5.5.9.6.5. .H S "
};
