/* XPM */
static char *result[] = {
/* columns rows colors chars-per-pixel */
"64 64 158 2 ",
"   c #17234A",
".  c #18234A",
"X  c #18234B",
"o  c #18244C",
"O  c #19244D",
"+  c #19254D",
"@  c #19254E",
"#  c #19254F",
"$  c #1A264F",
"%  c #192650",
"&  c #1A2650",
"*  c #1A2651",
"=  c #1A2751",
"-  c #1A2652",
";  c #1A2752",
":  c #1B2752",
">  c #1B2753",
",  c #1B2853",
"<  c #1B2854",
"1  c #1B2855",
"2  c #1C2855",
"3  c #1C2955",
"4  c #1C2856",
"5  c #1C2956",
"6  c #1C2957",
"7  c #1C2A57",
"8  c #1C2958",
"9  c #1C2A58",
"0  c #1D2A58",
"q  c #1C2A59",
"w  c #1D2A59",
"e  c #1D2B59",
"r  c #1D2A5A",
"t  c #1D2B5A",
"y  c #1D2B5B",
"u  c #1E2B5B",
"i  c #1D2C5B",
"p  c #1E2C5B",
"a  c #1E2B5C",
"s  c #1E2C5C",
"d  c #1E2C5D",
"f  c #1E2D5D",
"g  c #1E2C5E",
"h  c #1E2D5E",
"j  c #1F2D5E",
"k  c #1E2D5F",
"l  c #1F2D5F",
"z  c #1F2E5F",
"x  c #1F2D60",
"c  c #1F2E60",
"v  c #1F2E61",
"b  c #1F2E62",
"n  c #1F2F62",
"m  c #202E60",
"M  c #202E61",
"N  c #202F61",
"B  c #202E62",
"V  c #202F62",
"C  c #202F63",
"Z  c #212F63",
"A  c #202F64",
"S  c #212F64",
"D  c #212F65",
"F  c #203063",
"G  c #203064",
"H  c #213064",
"J  c #203065",
"K  c #213065",
"L  c #213066",
"P  c #213166",
"I  c #213067",
"U  c #213167",
"Y  c #223066",
"T  c #223166",
"R  c #223067",
"E  c #223167",
"W  c #213168",
"Q  c #223168",
"!  c #223169",
"~  c #223268",
"^  c #223269",
"/  c #233269",
"(  c #22326A",
")  c #23326A",
"_  c #23336A",
"`  c #23326B",
"'  c #23336B",
"]  c #23336C",
"[  c #23336D",
"{  c #24336C",
"}  c #24336D",
"|  c #23346C",
" . c #23346D",
".. c #23346E",
"X. c #24346C",
"o. c #24346D",
"O. c #24346E",
"+. c #24356E",
"@. c #24346F",
"#. c #24356F",
"$. c #25356F",
"%. c #243470",
"&. c #243570",
"*. c #253570",
"=. c #243571",
"-. c #253571",
";. c #253670",
":. c #253671",
">. c #253572",
",. c #253672",
"<. c #253673",
"1. c #253773",
"2. c #263672",
"3. c #263673",
"4. c #263773",
"5. c #253674",
"6. c #253774",
"7. c #263774",
"8. c #263775",
"9. c #263776",
"0. c #263875",
"q. c #273875",
"w. c #263876",
"e. c #273876",
"r. c #273976",
"t. c #263877",
"y. c #273877",
"u. c #273977",
"i. c #273878",
"p. c #273978",
"a. c #273979",
"s. c #27397A",
"d. c #273A7A",
"f. c #283978",
"g. c #283979",
"h. c #283A79",
"j. c #28397A",
"k. c #283A7A",
"l. c #283A7B",
"z. c #283B7B",
"x. c #283A7C",
"c. c #283B7C",
"v. c #293B7C",
"b. c #283B7D",
"n. c #293B7D",
"m. c #293C7D",
"M. c #293C7E",
"N. c #293C7F",
"B. c #2A3C7F",
"V. c #2A3D7F",
"C. c #2A3C80",
"Z. c #2A3D80",
"A. c #2A3D81",
"S. c #2A3E82",
"D. c #2B3E82",
"F. c #2B3E83",
"G. c #2B3F84",
"H. c #2C4087",
/* pixels */
"2.:.*.@.E V f M K L C M C K L E E K C V V V H L ) ] O.O.O.#.#.O.o.] ^ Q Q Q Q L S C C C C B M x s c Q -.,.O.O.>.8.t.s.l.s.t.7.4.",
":.O.] } M p d M S B l c C K L E Y H Z S S K Q W o.$.#.@.o.o.` Q ^ ' ] ] ' O.[ ) Q L E L I L A C g L #.<.4.*.<.t.t.s.l.k.s.i.w.4.",
"7.,.O.] O.M w t f c v x l B S K L E Q I L L R Q ^ ' -.*.o.` ^ Q ^ O.*.-.,.,.-.0.-.] ( ^ ' / ^ Q L A A ] 0.7.7.,.9.l.a.t.p.l.a.w.",
"<.:.) F j t y d l x l v C S L L ! ( ! E E Q Q ^ O.,.,.*.o.] ' ' [ #.-.<.<.w.u.8.&.[ @.@.O.o.' ^ E Q @.4.e.e.7.p.l.a.7.8.s.s.w.7.",
"8.1.] H B c j d d k v v n C K L Q ^ ' ' ) ( ) ' ] #.-.,.2.:.@.] ] #.<.7.w.a.p.p.y.7.:.*.-.-.#.o.] ` ] o.&.3.q.y.u.a.p.e.7.<.,.6.",
") ' ) E K Z c x l x v c b A K U Q (  . .] ' ' } o.O.*.:.,.*.@.O.@.,.4.7.8.a.k.l.c.k.w.<.7.,.*.#.O.} ] ! ` &.7.t.p.p.e.7.,.] U Q ",
"^ ^ Q ^ E K V L A v v C A I K E ) ]  . .] ] ] O.&.*.O.@.:.,.8.u.k.c.n.v.l.l.l.l.l.g.u.y.y.<.-.#.#.#.O.^ (  .&.6.y.t.7.,.:.O.' _ ",
"[ ( ^ ' ' _ ^ E Q L C L L L I U Q o. .O.o.] ' ( ^ / / ' #.,.7.0.y.l.N.Z.B.B.D.A.N.M.c.z.l.y.5.@.` O.;.,. .K v L ! ] 8.j.e.:.:.:.",
"O.' ' ` ( ) E T E Q ^ Q Q K ' @.@.O.O.o.^ Q L E / ~ ^ ] O.*.4.e.p.l.m.M.M.M.n.n.M.Z.V.m.y.8.@.] O.*.,.-.U V V L ! ] 7.y.4.:.2.,.",
"$.@.[ ! U ^ E E / / _ ) ^ Q Q @.<.-.#.o.( ^ ^ / ) ! ) ' ) _ } :.8.p.h.k.n.Z.n.l.l.l.m.M.z.k.<.O.] Q ' o.' Q L C G L Q ^ Q ^ X.O.",
"U Q Q W Q Q Q ! / _ ' _ '  .O.,.4.:.#.] ' ' ' { ' ' ' ) ) ] #.4.e.u.a.k.M.N.n.v.c.v.n.M.n.p.:.] I C Q ( Q U K v M A I I k d M H ",
"A A A L ^ E I ^ ^ ( ] ) o.,.1.1.4.<.:.@.{ X.] X.' ] ' Q ' &.3.8.e.u.p.k.n.n.M.k.p.p.p.l.v.w.&.( A C L L G A v v c c V V v v B C ",
"d v C L ^ Q E Q ^ Q ] ' ' #.,.,.7.8.7.4.*.O.' ) ^ Q E Q ) ] O.-.4.e.y.p.l.F.H.G.c.p.e.f.g.p.h.7.Q A c d x A v u s d k h s i y t ",
"l B L ^ ^ ~ ( ! U ^ O.*.:.,.,.<.4.,.,.,.*.) Q L L K S ^ o.#.:.7.e.r.u.p.k.C.F.G.Z.l.k.k.a.a.e.] C l d d x B d s d c c h s y e t ",
"e y j C A E ' Q K U  .-.-.,.,.,.:.&.@.*.*.] ) Q Q L L Q ) [ &.,.4.8.e.p.h.n.A.D.F.F.Z.k.g.g.y.4.#.! l r r a a y y y d h d s t e ",
"5 0 s v A L U Q ) ] #.,.7.7.,.*.#. .` ' [ ) ( Q U L Q ( ] @.-.,.4.0.e.u.l.B.S.Z.S.F.n.p.g.l.y.4.:.^ d r y y y r 9 w a d y w 7 5 ",
"0 e s l V E ~ ( ' ]  .=.<.1.,.@.O.o.^ Q ' ( E E E E I L E ] &.,.4.4.7.q.y.a.l.v.M.M.a.8.8.8.7.4.:.( B s w 9 w w 8 9 t y y t q 9 ",
"5 0 y g C E E L U Q ) [ *.,.,.&.[ ] ( E E E E Q ^ Q L K L ^ ` [ #.:.4.7.w.p.a.k.N.N.u.0.y.<.&.1.<.' P J g 6 5 6 6 6 6 6 2 < , , ",
"0 d M S E Q E U U Q ` [ ] O.*.] ) ) Q K L E K U Q K S K ) &.,.8.p.p.p.e.y.p.g.v.Z.n.y.4.-.] ] #.| K A x r 6 8 w w 9 6 6 1 > ; > ",
"; , 9 d B H K K K K A K K Q O.o.^ ^ ) Q L E L L I D L ( #.,.4.7.w.a.b.b.k.y.e.e.y.k.v.v.0.` K U K L Q A y w 8 6 5 6 5 5 3 < : & ",
"& - < q h c C B v v V K E L E ! Q Q ! Q ! K K ^ ' { [ O.*.,.<.7.y.k.b.x.e.,.<.w.p.y.a.p.[ H H C B U A d r a t 6 4 6 8 7 5 < ; & ",
"& ; 1 w d x M C v d l x v b v C L Y E Q Q U C ! @.#.O.O.#.@.@.:.7.w.y.a.l.a.0.,.#.&.4.8.-.o.! c d d g g d y t r r w 8 6 5 < : & ",
"@ & > 4 9 s g l d t s d d k l x C K E Q ! ` ` [ &.:.&.@.O.[ O.-.,.4.7.p.c.z.p.,.] ^ O.&.@.@.` C l f d g g t r a d t 6 < > ; & + ",
"O & < 6 t d g s y y u a a d g h B K E I ! ] O.%.*.:.*.&.@.O.&.<.8.8.8.p.k.p.7.@.' ( ] / ) ) K v j s s s t w y d d d r 4 ; & @ o ",
". o # > 0 s x l t r r w 9 q r y s l V L K Q ' o.@.@.=.&.#...%.>.<.7.p.z.k.u.a.p.*.' ^ Q Q E L L C x d t t r r r r t r w 5 > % X ",
"$ : 2 6 r y t w t y w 0 8 8 t s l c C Q / _ o.O.@.@.O.O...O.-.<.<.<.a.N.M.l.k.,.] ^ U Q E K K M l c f y y d d g d a a r w 9 < & ",
"= < 5 9 t a d y a s t 9 6 9 t y t u g c E ) ) ] ] o.*.-.@.[ @.-.8.t.a.p.k.m.m.k.y.&.^ ! E L L S B c h d s y u d a s a y r 0 2 ; ",
"& > 1 6 w r y t t w 9 9 8 8 0 9 8 r v S Q ^ Q ' O.#.,.-.$.o.] @.7.p.6. .>.d.c.b.u.#.^ ^ E L K A B c z l j d h x x x g s r 6 < # ",
"* > 5 9 t y y s d d d y r 0 8 8 0 u U ( ( Q Q o.-.*.,.,.*.O.] O.,.8.-.] O.&.8.a.,.] ^ E E Y A C M m z l l c M B S B x l d y 6 ; ",
"* 1 6 w s l B L G c h d d w 9 9 6 6 r L @.^ Q Q { <.$.8.e.8.-.O.} [ ,.9.<.! K ] ,.w.&.K E Q Q K V V c c z l c B A K E K B g w - ",
"l c B C C K D C k d l d d y q 9 4 B O.O.) Q o.,.:.y.g.u.w.,.*.o.] @.<.=.K V I O.-.^ K K E Q K Z N c M c j c A K ` O.o.] ^ Q K l ",
"P I K A H H S K V c l j x h j d e s M O.:.o.] O.<.e.p.l.a.8.4.-.-.-.:.&.] ^ m C Q ^ Q C S K K L K C M m m c M A Q ^ @.#.O.o.] ~ ",
"o.] ! Q E Q E L S C V V C M M c s l K &.<.@.O.=.8.y.a.x.k.y.7.4.2.:.:.#.~ H j M K P K M C K L E E K C V V V C K ( ' O.@.@.*.#.O.",
"( ' ] ] ' O.[ ) Q L E L I L A C g I &.3.4.*.<.t.t.s.l.k.s.i.w.4.:.O.] } M u d M S B l c C K L E Y H Z S S K Q W o.$.#.@.o.o.` Q ",
"^ O.*.-.,.,.-.0.-.] ( ^ ' / ^ Q L A A ] 0.7.7.,.9.l.a.t.p.l.a.w.7.,.O.] O.M w t f c v x l B S K L E Q I L L R Q ^ ' -.*.o.` ^ Q ",
"[ #.-.<.<.w.u.8.&.[ @.@.O.o.' ^ E Q @.4.e.e.7.p.l.a.7.8.s.s.w.7.<.:.) F j t y d l x l v C S L L ! ( ! E E Q Q ^ O.,.,.*.o.] ' ' ",
"] #.<.7.w.a.p.p.y.7.:.*.-.-.#.o.] ` ] o.&.3.q.y.u.a.p.e.7.<.,.7.8.1.] H B c j d d k v v n C K L Q ^ ' ' ) ( ) ' ] #.-.,.2.:.@.] ",
"@.:.4.7.8.a.k.l.c.k.w.<.7.,.*.#.O.} ] ! ` &.7.t.p.p.e.7.,.] U Q ) ' ) E K Z c x l x v c b A K U Q (  . .] ' ' } o.O.*.:.,.*.@.O.",
"k.c.n.v.l.l.l.l.l.g.u.y.y.<.-.#.#.#.O.^ (  .&.6.y.t.7.,.:.O.' ) / ^ Q ^ E K V L A v v C A I K E ) ]  . .] ] ] O.&.*.O.@.:.,.8.y.",
"u.l.N.Z.B.B.D.A.N.M.c.z.l.y.5.@.` O.;.,. .K v L ! ] 8.j.e.:.:.:.o.( ^ ' ' _ ^ E Q L C L L L I U Q o. .O.o.] ' ( ^ / / ' #.,.7.0.",
"p.l.m.M.M.M.n.n.M.Z.V.m.y.8.@.] O.*.,.-.U V V L ! ] 7.y.4.:.2.:.@.' ' ` ( ) E T E Q ^ Q Q K ' @.@.O.O.o.^ Q L E / ~ ^ ] O.*.7.w.",
"8.p.h.k.n.Z.n.l.l.l.m.M.z.k.<.O.] Q ' o.' Q L C G L Q ^ Q ^ X.+.$.@.[ ! U ^ E E / / _ ) ^ Q Q @.<.-.#.o.( ^ ^ / ) ! ) ' ) _ } -.",
"e.u.a.k.M.N.n.v.c.v.n.M.n.p.:.] I C Q ( Q U K v M A I I k d M H U Q Q W Q Q Q ! / _ ' _ '  .O.,.4.:.#.] ' ' ' { ' ' ' ) ) ] #.4.",
"e.u.p.k.n.n.M.k.p.p.p.l.v.w.&.( A C L L G A v v c c V V v v B C A A A L ^ E I ^ ^ ( ] ) o.,.1.1.4.<.:.@.{ X.] X.' ] ' Q ' &.3.7.",
"4.e.y.p.l.F.H.G.c.p.e.f.g.p.h.7.Q A c d x A v u s d k h s i y y d v C L ^ Q E Q ^ Q ] ' ' #.,.,.7.8.7.4.*.O.' ) ^ Q E Q ) ] O.-.",
"e.r.u.p.k.C.F.G.Z.l.k.k.a.a.e.] C l d d x B d s d c c h s y e y j B L ^ ^ ~ ( ! U ^ O.*.:.,.,.<.4.,.,.,.*.) Q L L K S ^ o.#.:.7.",
"4.7.e.p.h.n.A.D.F.F.Z.k.g.g.y.4.#.! l r r a a y y y d h d s t e e y j C A E ' Q K U  .-.-.,.,.,.:.&.@.*.*.] ) Q Q L L Q ) [ &.:.",
"4.0.e.u.l.B.S.Z.S.F.n.p.g.l.y.4.:.^ d r y y y r 9 w a d y w 7 5 5 0 s v A L U Q ) ] #.,.7.7.,.*.#. .` ' [ ) ( Q U L Q ( ] @.-.,.",
"4.4.7.q.y.a.l.v.M.M.a.8.8.8.7.4.:.( B s w 9 w w 8 9 t y y t q 9 0 e s l V E ~ ( ' ]  .=.<.1.,.@.O.o.^ Q ' ( E E E E I L E ] &.,.",
"#.:.4.7.w.p.a.k.N.N.u.0.y.<.&.1.<.' P J g 6 5 6 6 6 6 6 2 < , , 5 0 y g C E E L U Q ) [ *.,.,.&.[ ] ( E E E E Q ^ Q L K L ^ ` ] ",
"p.p.p.e.y.p.g.v.Z.n.y.4.-.] ] #.| K A x r 6 8 w w 9 6 6 1 > ; , 0 d M S E Q E U U Q ` [ ] O.*.] ) ) Q K L E K U Q K S K ) &.,.8.",
"w.a.b.b.k.y.e.e.y.k.v.v.0.` K U K L Q A y w 8 6 5 6 5 5 3 < : & = < 9 d B H K K K K A K K Q O.o.^ ^ ) Q L E L L I D L ( #.,.4.7.",
"y.k.b.x.e.,.<.w.p.y.a.p.[ H H C B U A d r a t 6 4 6 8 7 5 < ; $ & - < q h c C B v v V K E L E ! Q Q ! Q ! K K ^ ' { [ O.*.,.<.7.",
"7.w.y.a.l.a.0.,.#.&.4.8.-.o.! c d d g g d y t r r w 8 6 5 < : & & ; 1 w d x M C v d l x v b v C L Y E Q Q U C ! @.#.O.O.#.@.@.-.",
"<.4.7.p.c.z.p.,.] ^ O.&.@.@.` C l f d g g t r a d t 6 < > ; & + @ & > 4 9 s g l d t s d d k l x C K E Q ! ` ` [ &.:.&.@.O.[ O.*.",
"8.8.8.p.k.p.7.@.' ( ] / ) ) K v j s s s t w y d d d r 4 ; & @ o O * < 6 t d g s y y u a a d g h B K E I ! ] O.%.*.:.*.&.@.O.&.<.",
"<.7.p.z.k.u.a.p.*.' ^ Q Q E L L C x d t t r r r r t r w 5 > & X   o # > 0 s x l t r r w 9 q r y s l V L K Q ' o.@.@.=.&.#...%.-.",
"<.<.a.N.M.l.k.,.] ^ U Q E K K M l c f y y d d g d a a r w 9 < & $ : 2 6 r y t w t y w 0 8 8 t s l c C Q / _ o.O.@.@.O.O...O.-.<.",
"8.t.a.p.k.m.m.k.y.&.^ ! E L L S B c h d s y u d a s a y r 0 2 = = < 5 9 t a d y a s t 9 6 9 t y t u g c E ) ) ] ] o.*.-.@.[ @.=.",
"7.i.6. .>.d.c.b.u.#.^ ^ E L K A B c z l j d h x x x g s r 6 < # & > 1 6 w r y t t w 9 9 8 8 0 9 8 r v S Q ^ Q ' O.#.,.-.$.o.] O.",
",.8.-.] O.&.8.a.,.] ^ E E Y A C M m z l l c M B S B x l d y 6 = * > 5 9 t y y s d d d y r 0 8 8 0 u U ( ( Q Q o.-.*.,.,.*.O.] ..",
"] [ ,.9.<.! K ] ,.w.&.K E Q Q K V V c c z l c B A K E K B g w * * 1 6 w s l B L G c h d d w 9 9 6 6 r L @.^ Q Q { <.$.8.e.8.-.@.",
"] @.<.=.K C I  .=.! K K E Q K Z N c M c j c A K ` O.o.] ^ Q K l j c B C C K D C k d l d d y q 9 4 B O.O.) Q o.,.:.y.g.u.e.,.*.O.",
"*.-.-.&.' E M H ^ ( E C S K L K K C M m c c M A Q ) @.#.O.o.' P K L S A A H S H B l l j l h j s w s C O.-.o.] #.4.e.p.l.p.8.<.-."
};
